<svg xmlns="http://www.w3.org/2000/svg" width="430" height="430" style="width:100%;height:100%;transform:translate3d(0,0,0);content-visibility:visible" viewBox="0 0 430 430"><defs><clipPath id="b"><path d="M0 0h430v430H0z"/></clipPath><clipPath id="c"><path d="M0 0h430v430H0z"/></clipPath><path id="a" fill="#4BB3FD" d="M98.095 29.935h-196.19l15.35-59.87h139.09l41.75 59.87z" style="display:block" transform="translate(211.577 179.873)"/><mask id="d" mask-type="alpha"><use xmlns:ns1="http://www.w3.org/1999/xlink" ns1:href="#a"/></mask></defs><g clip-path="url(#b)"><g clip-path="url(#c)" style="display:block"><path fill="#3A3347" d="M64.585 0h-129.17" class="quinary" style="display:block" transform="translate(212.115 303.116)"/><path fill="#3A3347" d="M-129.21 70.885h-54.26v-41.95c0-28.95 23.48-52.42 52.42-52.42l115.157-47.4L97.29-23.495l11.42.01c22.08 0 41.92 9.57 55.6 24.79 11.91 13.24 19.16 30.75 19.16 49.96v19.62h-55.72" class="quinary" style="display:block" transform="translate(212.85 232.221)"/><g opacity=".5" style="mix-blend-mode:multiply;display:block"><path fill="#3A3347" d="M122.368 120.828h21.56c-9.53 0-17.72 5.14-19.53 12.24l-23.06 75.66 2.02.01c-28.94 0-52.42 23.47-52.42 52.42v41.95h-21.56v-41.95c0-28.95 23.48-52.42 52.42-52.42l-2.02-.01 23.06-75.66c1.81-7.1 10-12.24 19.53-12.24z" class="quinary" opacity="1"/></g><path fill="#4BB3FD" d="M20.015 22.212h-40.03v-35.5c0-4.928 4.029-8.924 9-8.924h22.03c4.971 0 9 3.996 9 8.924v35.5z" class="secondary" style="display:block" transform="translate(182.053 103.348)"/><g opacity=".5" style="mix-blend-mode:multiply;display:block"><path fill="#4BB3FD" d="M185.108 81.132c-4.97 0-9 4-9 8.93v35.5h-14.07v-35.5c0-4.93 4.03-8.93 9-8.93h14.07z" class="secondary" opacity="1"/></g><path fill="#EBE6EF" d="M115.18 43.95h-230.36l23.06-75.66c1.81-7.1 10-12.24 19.52-12.24H41.92c7.5 0 14.36 3.21 17.74 8.29l13.77 19.74 41.75 59.87z" class="senary" style="display:block" transform="translate(194.947 164.866)"/><g opacity=".5" style="mix-blend-mode:multiply;display:block"><path fill="#EBE6EF" d="M143.897 120.916c-9.52 0-17.71 5.14-19.52 12.24l-23.06 75.66h-21.55l23.06-75.66c1.81-7.1 10-12.24 19.52-12.24h21.55z" class="senary" opacity="1"/></g><path fill="#4BB3FD" d="M98.095 29.935h-196.19l15.35-59.87h139.09l41.75 59.87z" class="secondary" style="display:block" transform="translate(212.032 178.869)"/><g fill="#4BB3FD" mask="url(#d)" opacity=".5" style="mix-blend-mode:multiply;display:block"><path d="m290.616 71.818 83.07 123.926-37.392 25.065-83.07-123.926 37.392-25.065z" class="secondary" opacity="1"/><path d="m286.634 71.29 83.072 123.926-37.392 25.065-83.071-123.927 37.391-25.064zm-67.617 34.825 83.07 123.926-37.392 25.065-83.07-123.926 37.392-25.065zM137.8 118.198l83.071 123.926-37.392 25.065-83.07-123.926 37.391-25.065z" class="secondary" opacity="1"/></g><path fill="#FFC738" d="M24.595 16.93h-32.26c-9.35 0-16.93-7.58-16.93-16.93 0-4.67 1.9-8.91 4.95-11.97 3.08-3.07 7.3-4.96 11.98-4.96h14.85a74.572 74.572 0 0 1 17.41 33.86z" class="tertiary" style="display:block" transform="translate(369.799 250.388)"/><g opacity=".5" style="mix-blend-mode:multiply;display:block"><path fill="#FFC738" d="M374.824 267.318h-12.69c-9.35 0-16.93-7.58-16.93-16.93 0-4.67 1.9-8.91 4.95-11.97 3.08-3.07 7.3-4.96 11.98-4.96h12.69c-4.68 0-8.9 1.89-11.98 4.96-3.05 3.06-4.95 7.3-4.95 11.97 0 9.35 7.58 16.93 16.93 16.93z" class="tertiary" opacity="1"/></g><path fill="#FFC738" d="m13.21 6.94 3.12 18.18L0 16.54l-16.32 8.58 3.12-18.18-13.21-12.87 18.25-2.65L0-25.12 8.17-8.58l18.24 2.65-13.2 12.87z" class="tertiary" style="display:block" transform="translate(201.824 253.968)"/><g opacity=".5" style="mix-blend-mode:multiply;display:block"><path fill="#FFC738" d="m218.327 279.088-16.33-8.58-16.32 8.58 3.12-18.18-13.21-12.87 13.28-1.93 6.01 5.86-3.12 18.18 16.32-8.58 7.96 4.18 2.29 13.34z" class="tertiary" opacity="1"/></g><g fill="none" stroke="#121331" stroke-linecap="round" stroke-linejoin="round" stroke-width="7" style="display:block"><path d="M161.627 120.255V90.49c0-4.928 4.029-8.923 9-8.923h22.03c4.971 0 9 3.995 9 8.923v30.159m175.154 113.304h-14.852a16.866 16.866 0 0 0-11.971 4.964 16.886 16.886 0 0 0-4.951 11.971c0 9.343 7.579 16.921 16.922 16.921h32.206m-365.132-1.942h26.573m146.051-36.524 8.161 16.537 18.25 2.652-13.206 12.872 3.118 18.176-16.323-8.581-16.323 8.581 3.117-18.176-13.205-12.872 18.249-2.652 8.162-16.537z" class="primary"/><path d="M236.532 121.255H122.016c-9.525 0-17.713 5.135-19.522 12.243L79.43 209.157h230.358l-55.513-79.61c-3.384-5.086-10.245-8.292-17.743-8.292zm-39.923 87.906v-59.877m79.748 154.258H147.166m-63.869-.012H29.032v-41.95c0-28.948 23.478-52.415 52.415-52.415h239.758c41.287 0 74.763 33.454 74.763 74.752v19.613h-55.72m-74.793-154.246H128.941l-15.344 59.881" class="primary"/></g><path fill="#646E78" d="M-31.948 0c0 17.644 14.304 31.948 31.948 31.948S31.948 17.644 31.948 0 17.644-31.948 0-31.948-31.948-17.644-31.948 0z" class="quaternary" style="display:block" transform="translate(115.63 303.116)"/><path fill="#646E78" d="M-31.948 0c0 17.644 14.304 31.948 31.948 31.948S31.948 17.644 31.948 0 17.644-31.948 0-31.948-31.948-17.644-31.948 0z" class="quaternary" style="display:block" transform="translate(308.694 303.116)"/><g opacity=".5" style="mix-blend-mode:multiply;display:block"><path fill="#646E78" d="M124.923 333.686c-2.94.9-6.06 1.38-9.3 1.38-17.64 0-31.94-14.31-31.94-31.95s14.3-31.95 31.94-31.95c3.24 0 6.36.48 9.3 1.38-13.11 3.98-22.65 16.16-22.65 30.57s9.54 26.59 22.65 30.57z" class="quaternary" opacity="1"/></g><g opacity=".5" style="mix-blend-mode:multiply;display:block"><path fill="#646E78" d="M317.983 333.686c-2.94.9-6.06 1.38-9.29 1.38-17.65 0-31.95-14.31-31.95-31.95s14.3-31.95 31.95-31.95c3.23 0 6.35.48 9.29 1.38-13.11 3.98-22.65 16.16-22.65 30.57s9.54 26.59 22.65 30.57z" class="quaternary" opacity="1"/></g><g fill="none" stroke="#121331" stroke-linecap="round" stroke-linejoin="round" style="display:block"><path stroke-width="7" d="M83.288 303.532c0 17.644 14.304 31.948 31.948 31.948s31.948-14.304 31.948-31.948-14.304-31.948-31.948-31.948-31.948 14.304-31.948 31.948zm193.064 0c0 17.644 14.304 31.948 31.948 31.948s31.948-14.304 31.948-31.948-14.304-31.948-31.948-31.948-31.948 14.304-31.948 31.948z" class="primary"/><path stroke-width="12" d="M115.242 303.532h-.012m193.076 0h-.012" class="primary"/></g><path fill="none" stroke="#121331" stroke-linecap="round" stroke-linejoin="round" stroke-width="7" d="M9.224-5.196-8.883 5.646M-136.982-5.021l18.12 10.76M9.099 39.846-8.596 29.582m-128.661 10.689 18.368-10.347" class="primary" style="display:block" transform="translate(245.954 60.074)"/><path fill="none" class="primary" style="display:none"/><path fill="none" class="primary" style="display:none"/><path fill="none" class="primary" style="display:none"/><path fill="none" class="primary" style="display:none"/></g></g></svg>